{
  "accessors": [
    {
      "bufferView": 2,
      "componentType": 5126,
      "count": 7827,
      "max": [
        1.2808970212936401,
        1.2808430194854736,
        13.947579383850098
      ],
      "min": [
        -1.2809150218963623,
        -1.280830979347229,
        11.417099952697754
      ],
      "type": "VEC3"
    },
    {
      "bufferView": 2,
      "byteOffset": 93924,
      "componentType": 5126,
      "count": 7827,
      "max": [
        0.9985610842704773,
        0.9997143745422363,
        0.9991735816001892
      ],
      "min": [
        -0.998286247253418,
        -0.9993258714675903,
        -1.0
      ],
      "type": "VEC3"
    },
    {
      "bufferView": 1,
      "componentType": 5126,
      "count": 7827,
      "max": [
        0.9996060132980347,
        0.9995459914207458
      ],
      "min": [
        0.0,
        0.0
      ],
      "type": "VEC2"
    },
    {
      "bufferView": 0,
      "componentType": 5125,
      "count": 34134,
      "type": "SCALAR"
    },
    {
      "bufferView": 2,
      "byteOffset": 187848,
      "componentType": 5126,
      "count": 6033,
      "max": [
        2.0048511028289795,
        0.8153889775276184,
        10.542130470275879
      ],
      "min": [
        0.960660994052887,
        -0.6686879992485046,
        9.058137893676758
      ],
      "type": "VEC3"
    },
    {
      "bufferView": 2,
      "byteOffset": 260244,
      "componentType": 5126,
      "count": 6033,
      "max": [
        1.0,
        0.9999662041664124,
        0.9999902248382568
      ],
      "min": [
        -1.0,
        -0.9999826550483704,
        -1.0
      ],
      "type": "VEC3"
    },
    {
      "bufferView": 1,
      "byteOffset": 62616,
      "componentType": 5126,
      "count": 6033,
      "max": [
        0.9995689988136292,
        0.9995440244674683
      ],
      "min": [
        0.0004309999931138009,
        0.0004560000088531524
      ],
      "type": "VEC2"
    },
    {
      "bufferView": 0,
      "byteOffset": 136536,
      "componentType": 5125,
      "count": 24000,
      "type": "SCALAR"
    },
    {
      "bufferView": 2,
      "byteOffset": 332640,
      "componentType": 5126,
      "count": 4453,
      "max": [
        0.3937020003795624,
        2.889475107192993,
        9.389333724975586
      ],
      "min": [
        -0.5568659901618958,
        -2.889348030090332,
        6.077905178070068
      ],
      "type": "VEC3"
    },
    {
      "bufferView": 2,
      "byteOffset": 386076,
      "componentType": 5126,
      "count": 4453,
      "max": [
        0.9999702572822571,
        0.999937891960144,
        0.9999297261238098
      ],
      "min": [
        -0.9999977350234985,
        -0.9999468922615051,
        -0.9997325539588928
      ],
      "type": "VEC3"
    },
    {
      "bufferView": 1,
      "byteOffset": 110880,
      "componentType": 5126,
      "count": 4453,
      "max": [
        0.9995329976081848,
        0.9995229840278625
      ],
      "min": [
        0.0004670000053010881,
        0.0004769999941345304
      ],
      "type": "VEC2"
    },
    {
      "bufferView": 0,
      "byteOffset": 232536,
      "componentType": 5125,
      "count": 23994,
      "type": "SCALAR"
    },
    {
      "bufferView": 2,
      "byteOffset": 439512,
      "componentType": 5126,
      "count": 12838,
      "max": [
        4.745203018188477,
        3.387814998626709,
        6.357068061828613
      ],
      "min": [
        -4.239412784576416,
        -4.419699192047119,
        -0.8438130021095276
      ],
      "type": "VEC3"
    },
    {
      "bufferView": 2,
      "byteOffset": 593568,
      "componentType": 5126,
      "count": 12838,
      "max": [
        0.9999353289604187,
        0.9998288750648499,
        0.9999204874038696
      ],
      "min": [
        -0.9997202157974243,
        -0.9999641180038452,
        -0.9999828338623047
      ],
      "type": "VEC3"
    },
    {
      "bufferView": 1,
      "byteOffset": 146504,
      "componentType": 5126,
      "count": 12838,
      "max": [
        0.999538004398346,
        0.9995620250701904
      ],
      "min": [
        0.0004619999963324517,
        0.00043799998820759356
      ],
      "type": "VEC2"
    },
    {
      "bufferView": 0,
      "byteOffset": 328512,
      "componentType": 5125,
      "count": 68682,
      "type": "SCALAR"
    },
    {
      "bufferView": 2,
      "byteOffset": 747624,
      "componentType": 5126,
      "count": 4619,
      "max": [
        0.2029619961977005,
        5.223488807678223,
        10.57435131072998
      ],
      "min": [
        -0.2029619961977005,
        3.8473920822143555,
        9.197922706604004
      ],
      "type": "VEC3"
    },
    {
      "bufferView": 2,
      "byteOffset": 803052,
      "componentType": 5126,
      "count": 4619,
      "max": [
        0.9996917843818665,
        0.9986714124679565,
        0.9988628029823303
      ],
      "min": [
        -0.9996919631958008,
        -0.9986795783042908,
        -0.9988698363304138
      ],
      "type": "VEC3"
    },
    {
      "bufferView": 1,
      "byteOffset": 249208,
      "componentType": 5126,
      "count": 4619,
      "max": [
        0.9995499849319458,
        0.9995989799499512
      ],
      "min": [
        0.00044999999227002263,
        0.00040099999750964344
      ],
      "type": "VEC2"
    },
    {
      "bufferView": 0,
      "byteOffset": 603240,
      "componentType": 5125,
      "count": 24000,
      "type": "SCALAR"
    },
    {
      "bufferView": 2,
      "byteOffset": 858480,
      "componentType": 5126,
      "count": 4572,
      "max": [
        0.2029619961977005,
        -3.822666883468628,
        7.091932773590088
      ],
      "min": [
        -0.2029619961977005,
        -5.199474811553955,
        5.715507984161377
      ],
      "type": "VEC3"
    },
    {
      "bufferView": 2,
      "byteOffset": 913344,
      "componentType": 5126,
      "count": 4572,
      "max": [
        0.9997051954269409,
        0.9989570379257202,
        0.9988711476325989
      ],
      "min": [
        -0.9996969699859619,
        -0.9991444945335388,
        -0.9986168146133423
      ],
      "type": "VEC3"
    },
    {
      "bufferView": 1,
      "byteOffset": 286160,
      "componentType": 5126,
      "count": 4572,
      "max": [
        0.9995669722557068,
        0.9995899796485901
      ],
      "min": [
        0.0004330000083427876,
        0.00041000000783242285
      ],
      "type": "VEC2"
    },
    {
      "bufferView": 0,
      "byteOffset": 699240,
      "componentType": 5125,
      "count": 24000,
      "type": "SCALAR"
    },
    {
      "bufferView": 2,
      "byteOffset": 968208,
      "componentType": 5126,
      "count": 4543,
      "max": [
        0.16261200606822968,
        -3.959836006164551,
        13.594429016113281
      ],
      "min": [
        -0.16261300444602966,
        -5.062364101409912,
        12.491639137268066
      ],
      "type": "VEC3"
    },
    {
      "bufferView": 2,
      "byteOffset": 1022724,
      "componentType": 5126,
      "count": 4543,
      "max": [
        0.9998383522033691,
        0.9987618923187256,
        0.9989686012268066
      ],
      "min": [
        -0.9996957778930664,
        -0.998711884021759,
        -0.9989521503448486
      ],
      "type": "VEC3"
    },
    {
      "bufferView": 1,
      "byteOffset": 322736,
      "componentType": 5126,
      "count": 4543,
      "max": [
        0.9994810223579407,
        0.9996240139007568
      ],
      "min": [
        0.0005189999938011169,
        0.0003760000108741224
      ],
      "type": "VEC2"
    },
    {
      "bufferView": 0,
      "byteOffset": 795240,
      "componentType": 5125,
      "count": 24000,
      "type": "SCALAR"
    },
    {
      "bufferView": 2,
      "byteOffset": 1077240,
      "componentType": 5126,
      "count": 9417,
      "max": [
        1.5135860443115234,
        1.5133039951324463,
        11.401885032653809
      ],
      "min": [
        -1.5135539770126343,
        -1.5133260488510132,
        5.2992730140686035
      ],
      "type": "VEC3"
    },
    {
      "bufferView": 2,
      "byteOffset": 1190244,
      "componentType": 5126,
      "count": 9417,
      "max": [
        0.9999697804450989,
        0.9999313354492188,
        1.0
      ],
      "min": [
        -0.999981701374054,
        -0.9999829530715942,
        -1.0
      ],
      "type": "VEC3"
    },
    {
      "bufferView": 1,
      "byteOffset": 359080,
      "componentType": 5126,
      "count": 9417,
      "max": [
        0.999530017375946,
        0.9994879961013794
      ],
      "min": [
        0.00046999999904073775,
        0.0005119999987073243
      ],
      "type": "VEC2"
    },
    {
      "bufferView": 0,
      "byteOffset": 891240,
      "componentType": 5125,
      "count": 51504,
      "type": "SCALAR"
    }
  ],
  "asset": {
    "extras": {
      "author": "JMArts Designer - Jorge Antunes (https://sketchfab.com/JMArtDesign)",
      "license": "CC-BY-NC-4.0 (http://creativecommons.org/licenses/by-nc/4.0/)",
      "source": "https://sketchfab.com/3d-models/roket-52abe4e76bfa4c08bc619f48ae38b166",
      "title": "Roket"
    },
    "generator": "Sketchfab-15.26.0",
    "version": "2.0"
  },
  "bufferViews": [
    {
      "buffer": 0,
      "byteLength": 1097256,
      "name": "floatBufferViews",
      "target": 34963
    },
    {
      "buffer": 0,
      "byteLength": 434416,
      "byteOffset": 1097256,
      "byteStride": 8,
      "name": "floatBufferViews",
      "target": 34962
    },
    {
      "buffer": 0,
      "byteLength": 1303248,
      "byteOffset": 1531672,
      "byteStride": 12,
      "name": "floatBufferViews",
      "target": 34962
    }
  ],
  "buffers": [
    {
      "byteLength": 2834920,
      "uri": "scene.bin"
    }
  ],
  "extensionsUsed": [
    "KHR_materials_unlit"
  ],
  "images": [
    {
      "uri": "textures/23_06_07_18_49_01_006_1_baseColor.png"
    },
    {
      "uri": "textures/23_06_07_18_49_01_006_2_baseColor.png"
    },
    {
      "uri": "textures/23_06_07_18_49_01_006_3_baseColor.png"
    },
    {
      "uri": "textures/23_06_07_18_49_01_006_4_baseColor.png"
    },
    {
      "uri": "textures/23_06_07_18_49_01_006_5_baseColor.png"
    },
    {
      "uri": "textures/23_06_07_18_49_01_006_6_baseColor.png"
    },
    {
      "uri": "textures/23_06_07_18_49_01_006_7_baseColor.png"
    },
    {
      "uri": "textures/23_06_07_18_49_01_006_8_baseColor.png"
    }
  ],
  "materials": [
    {
      "doubleSided": true,
      "extensions": {
        "KHR_materials_unlit": {}
      },
      "name": "23_06_07_18_49_01_006_1",
      "pbrMetallicRoughness": {
        "baseColorTexture": {
          "index": 0
        },
        "metallicFactor": 0.0
      }
    },
    {
      "doubleSided": true,
      "extensions": {
        "KHR_materials_unlit": {}
      },
      "name": "23_06_07_18_49_01_006_2",
      "pbrMetallicRoughness": {
        "baseColorTexture": {
          "index": 1
        },
        "metallicFactor": 0.0
      }
    },
    {
      "doubleSided": true,
      "extensions": {
        "KHR_materials_unlit": {}
      },
      "name": "23_06_07_18_49_01_006_3",
      "pbrMetallicRoughness": {
        "baseColorFactor": [
          0.8396216064658483,
          0.8396216064658483,
          0.8396216064658483,
          1.0
        ],
        "baseColorTexture": {
          "index": 2
        },
        "metallicFactor": 0.0
      }
    },
    {
      "doubleSided": true,
      "extensions": {
        "KHR_materials_unlit": {}
      },
      "name": "23_06_07_18_49_01_006_4",
      "pbrMetallicRoughness": {
        "baseColorTexture": {
          "index": 3
        },
        "metallicFactor": 0.0
      }
    },
    {
      "doubleSided": true,
      "extensions": {
        "KHR_materials_unlit": {}
      },
      "name": "23_06_07_18_49_01_006_5",
      "pbrMetallicRoughness": {
        "baseColorTexture": {
          "index": 4
        },
        "metallicFactor": 0.0
      }
    },
    {
      "doubleSided": true,
      "extensions": {
        "KHR_materials_unlit": {}
      },
      "name": "23_06_07_18_49_01_006_6",
      "pbrMetallicRoughness": {
        "baseColorTexture": {
          "index": 5
        },
        "metallicFactor": 0.0
      }
    },
    {
      "doubleSided": true,
      "extensions": {
        "KHR_materials_unlit": {}
      },
      "name": "23_06_07_18_49_01_006_7",
      "pbrMetallicRoughness": {
        "baseColorTexture": {
          "index": 6
        },
        "metallicFactor": 0.0
      }
    },
    {
      "doubleSided": true,
      "extensions": {
        "KHR_materials_unlit": {}
      },
      "name": "23_06_07_18_49_01_006_8",
      "pbrMetallicRoughness": {
        "baseColorFactor": [
          0.6019065962867696,
          0.6019065962867696,
          0.6019065962867696,
          1.0
        ],
        "baseColorTexture": {
          "index": 7
        },
        "metallicFactor": 0.0
      }
    }
  ],
  "meshes": [
    {
      "name": "Object_0",
      "primitives": [
        {
          "attributes": {
            "NORMAL": 1,
            "POSITION": 0,
            "TEXCOORD_0": 2
          },
          "indices": 3,
          "material": 0,
          "mode": 4
        }
      ]
    },
    {
      "name": "Object_1",
      "primitives": [
        {
          "attributes": {
            "NORMAL": 5,
            "POSITION": 4,
            "TEXCOORD_0": 6
          },
          "indices": 7,
          "material": 1,
          "mode": 4
        }
      ]
    },
    {
      "name": "Object_2",
      "primitives": [
        {
          "attributes": {
            "NORMAL": 9,
            "POSITION": 8,
            "TEXCOORD_0": 10
          },
          "indices": 11,
          "material": 2,
          "mode": 4
        }
      ]
    },
    {
      "name": "Object_3",
      "primitives": [
        {
          "attributes": {
            "NORMAL": 13,
            "POSITION": 12,
            "TEXCOORD_0": 14
          },
          "indices": 15,
          "material": 3,
          "mode": 4
        }
      ]
    },
    {
      "name": "Object_4",
      "primitives": [
        {
          "attributes": {
            "NORMAL": 17,
            "POSITION": 16,
            "TEXCOORD_0": 18
          },
          "indices": 19,
          "material": 4,
          "mode": 4
        }
      ]
    },
    {
      "name": "Object_5",
      "primitives": [
        {
          "attributes": {
            "NORMAL": 21,
            "POSITION": 20,
            "TEXCOORD_0": 22
          },
          "indices": 23,
          "material": 5,
          "mode": 4
        }
      ]
    },
    {
      "name": "Object_6",
      "primitives": [
        {
          "attributes": {
            "NORMAL": 25,
            "POSITION": 24,
            "TEXCOORD_0": 26
          },
          "indices": 27,
          "material": 6,
          "mode": 4
        }
      ]
    },
    {
      "name": "Object_7",
      "primitives": [
        {
          "attributes": {
            "NORMAL": 29,
            "POSITION": 28,
            "TEXCOORD_0": 30
          },
          "indices": 31,
          "material": 7,
          "mode": 4
        }
      ]
    }
  ],
  "nodes": [
    {
      "children": [
        1
      ],
      "matrix": [
        0.149370476603508,
        0.0,
        0.0,
        0.0,
        0.0,
        3.3166908464889565e-17,
        -0.149370476603508,
        0.0,
        0.0,
        0.149370476603508,
        3.3166908464889565e-17,
        0.0,
        0.0,
        0.0,
        0.0,
        1.0
      ],
      "name": "Sketchfab_model"
    },
    {
      "children": [
        2,
        3,
        4,
        5,
        6,
        7,
        8,
        9
      ],
      "name": "23_06_07_18_49_01_006.obj.cleaner.materialmerger.gles"
    },
    {
      "mesh": 0,
      "name": "Object_2"
    },
    {
      "mesh": 1,
      "name": "Object_3"
    },
    {
      "mesh": 2,
      "name": "Object_4"
    },
    {
      "mesh": 3,
      "name": "Object_5"
    },
    {
      "mesh": 4,
      "name": "Object_6"
    },
    {
      "mesh": 5,
      "name": "Object_7"
    },
    {
      "mesh": 6,
      "name": "Object_8"
    },
    {
      "mesh": 7,
      "name": "Object_9"
    }
  ],
  "samplers": [
    {
      "magFilter": 9729,
      "minFilter": 9987,
      "wrapS": 10497,
      "wrapT": 10497
    }
  ],
  "scene": 0,
  "scenes": [
    {
      "name": "Sketchfab_Scene",
      "nodes": [
        0
      ]
    }
  ],
  "textures": [
    {
      "sampler": 0,
      "source": 0
    },
    {
      "sampler": 0,
      "source": 1
    },
    {
      "sampler": 0,
      "source": 2
    },
    {
      "sampler": 0,
      "source": 3
    },
    {
      "sampler": 0,
      "source": 4
    },
    {
      "sampler": 0,
      "source": 5
    },
    {
      "sampler": 0,
      "source": 6
    },
    {
      "sampler": 0,
      "source": 7
    }
  ]
}
